<svg xmlns="http://www.w3.org/2000/svg" width="680" height="182" fill="none" viewBox="0 0 680 182">
    <path fill="#fff" fill-rule="evenodd" d="M670.182 28c7.74 0 11.87 9.123 6.763 14.938l-41.892 47.707 41.972 48.463c5.048 5.829.908 14.892-6.803 14.892h-41.709c-2.611 0-5.093-1.134-6.803-3.108l-19.643-22.681-19.957 22.727c-1.709 1.946-4.173 3.062-6.763 3.062h-42.329c-7.74 0-11.87-9.123-6.763-14.938l42.898-48.854-40.979-47.316C523.126 37.063 527.267 28 534.978 28h41.708c2.611 0 5.094 1.134 6.803 3.108l18.651 21.534 18.95-21.58c1.708-1.946 4.173-3.062 6.762-3.062h42.33zm-77.367 35.26L574.402 42h-28.479l32.554 37.59 14.338-16.33zm-5.086 27.011l14.338-16.328L659.277 140h-28.479l-24.407-28.181-18.662-21.548zm-9.324 10.619L544.062 140h29.021l19.732-22.471-14.41-16.639zm32.986-37.566L630.116 42h29.021l-33.335 37.963-14.411-16.639z" clip-rule="evenodd"/>
    <path fill="#fff" d="M77.04 143H11.664V40.904h19.872v83.088H77.04V143zm10.286-19.296c0-6.048 1.968-10.896 5.904-14.544 3.936-3.648 9.024-5.952 15.264-6.912l17.424-2.592c3.552-.48 5.328-2.16 5.328-5.04 0-2.688-1.056-4.896-3.168-6.624-2.016-1.728-4.944-2.592-8.784-2.592-4.032 0-7.248 1.104-9.648 3.312-2.304 2.208-3.6 4.944-3.888 8.208l-16.992-3.6c.672-6.144 3.696-11.568 9.072-16.272 5.376-4.704 12.48-7.056 21.312-7.056 10.56 0 18.336 2.544 23.328 7.632 4.992 4.992 7.488 11.424 7.488 19.296v34.848c0 4.224.288 7.968.864 11.232h-17.568c-.48-2.112-.72-4.944-.72-8.496-4.512 7.008-11.472 10.512-20.88 10.512-7.296 0-13.2-2.112-17.712-6.336-4.416-4.224-6.624-9.216-6.624-14.976zm28.368 7.056c4.512 0 8.208-1.248 11.088-3.744 2.976-2.592 4.464-6.816 4.464-12.672v-3.168l-15.984 2.448c-5.856.864-8.784 3.84-8.784 8.928 0 2.304.816 4.272 2.448 5.904 1.632 1.536 3.888 2.304 6.768 2.304zM214.655 143c-.384-1.92-.576-4.464-.576-7.632-1.824 3.168-4.56 5.568-8.208 7.2-3.552 1.536-7.344 2.304-11.376 2.304-8.352 0-14.928-2.64-19.728-7.92-4.8-5.376-7.201-12.048-7.201-20.016V72.152h19.153v40.896c0 4.224 1.104 7.68 3.312 10.368 2.208 2.592 5.424 3.888 9.648 3.888 4.128 0 7.392-1.248 9.792-3.744 2.4-2.592 3.6-6 3.6-10.224V72.152h19.152v58.032c0 4.512.24 8.784.72 12.816h-18.288zm57.159-40.752V143h-19.152V72.152h18.576v8.784c2.016-3.456 4.896-6.096 8.64-7.92 3.744-1.824 7.68-2.736 11.808-2.736 8.352 0 14.688 2.64 19.008 7.92 4.416 5.184 6.624 11.904 6.624 20.16V143h-19.152v-41.328c0-4.224-1.104-7.632-3.312-10.224-2.112-2.592-5.376-3.888-9.792-3.888-4.032 0-7.248 1.392-9.648 4.176-2.4 2.784-3.6 6.288-3.6 10.512zm96.765-14.544c-5.088 0-9.36 1.776-12.816 5.328-3.456 3.552-5.184 8.4-5.184 14.544s1.728 11.04 5.184 14.688c3.552 3.552 7.872 5.328 12.96 5.328 4.512 0 8.112-1.152 10.8-3.456 2.688-2.4 4.512-5.232 5.472-8.496l16.848 5.616c-1.728 6.528-5.472 12.144-11.232 16.848-5.76 4.704-13.056 7.056-21.888 7.056-10.56 0-19.44-3.552-26.64-10.656-7.104-7.2-10.656-16.176-10.656-26.928 0-10.848 3.504-19.824 10.512-26.928 7.104-7.104 15.84-10.656 26.208-10.656 9.024 0 16.416 2.352 22.176 7.056 5.76 4.608 9.456 10.224 11.088 16.848l-17.136 5.76c-2.304-7.968-7.536-11.952-15.696-11.952zm66.5 13.68V143h-19.152V38.744h19.152v39.312c4.32-5.184 10.704-7.776 19.152-7.776 8.64 0 15.168 2.64 19.584 7.92 4.512 5.184 6.768 11.904 6.768 20.16V143h-19.152v-41.328c0-4.224-1.104-7.632-3.312-10.224-2.112-2.592-5.376-3.888-9.792-3.888-3.936 0-7.104 1.296-9.504 3.888-2.304 2.592-3.552 5.904-3.744 9.936z"/>
    <defs>
        <linearGradient id="paint0_linear" x1="523.6" x2="672.1" y1="91" y2="91.126" gradientUnits="userSpaceOnUse">
            <stop stop-color="#B8A5F6"/>
            <stop offset="1" stop-color="#A7DAD2"/>
        </linearGradient>
    </defs>
</svg>
